<svg version="1.1" xmlns="http://www.w3.org/2000/svg" xmlns:xlink="http://www.w3.org/1999/xlink" width="1560" height="804"><defs/><g><path fill="none" stroke="#02063B" paint-order="fill stroke markers" d=" M 20 428.71521187497956 L 21 429.93523543948913 L 22 431.13864160327597 L 23 432.324714514759 L 24 433.4927486331206 L 25 434.64204914800024 L 26 435.77193239280615 L 27 436.88172625139697 L 28 437.97077055789345 L 29 439.03841748938083 L 30 440.08403195126937 L 31 441.10699195508323 L 32 442.10668898845296 L 33 443.082528377092 L 34 444.03392963854134 L 35 444.960326827472 L 36 445.86116887234033 L 37 446.73591990319534 L 38 447.5840595704432 L 39 448.40508335437966 L 40 449.1985028653062 L 41 449.9638461340501 L 42 450.7006578927182 L 43 451.40849984551454 L 44 452.08695092946283 L 45 452.73560756487757 L 46 453.3540838954353 L 47 453.94201201770284 L 48 454.49904219998666 L 49 455.0248430903718 L 50 455.5191019138286 L 51 455.9815246582679 L 52 456.41183624943585 L 53 456.8097807145426 L 54 457.17512133452954 L 55 457.50764078488186 L 56 457.8071412649057 L 57 458.07344461539043 L 58 458.3063924245877 L 59 458.5058461224432 L 60 458.67168706302556 L 61 458.80381659510385 L 62 458.9021561208302 L 63 458.9666471424946 L 64 458.99725129732207 L 65 458.9939503802931 L 66 458.95674635497306 L 67 458.88566135234413 L 68 458.7807376576406 L 69 458.6420376851952 L 70 458.46964394131174 L 71 458.2636589751858 L 72 458.02420531790307 L 73 457.7514254095509 L 74 457.44548151448737 L 75 457.1065556248176 L 76 456.7348493521347 L 77 456.33058380759053 L 78 455.89399947036657 L 79 455.42535604462375 L 80 454.9249323050164 L 81 454.39302593086165 L 82 453.82995332906387 L 83 453.2360494458983 L 84 452.611667567767 L 85 451.95717911104464 L 86 451.27297340113984 L 87 450.5594574409033 L 88 449.8170556685203 L 89 449.0462097050316 L 90 448.2473780916331 L 91 447.4210360169111 L 92 446.56767503417336 L 93 445.6878027690473 L 94 444.7819426175158 L 95 443.8506334345734 L 96 442.8944292136855 L 97 441.9138987572431 L 98 440.9096253382081 L 99 439.88220635315065 L 100 438.83225296688533 L 101 437.7603897489167 L 102 436.66725430191144 L 103 435.5534968824178 L 104 434.4197800140571 L 105 433.2667780934188 L 106 432.0951769888928 L 107 430.9056736326771 L 108 429.6989756062052 L 109 428.4758007192373 L 110 427.2368765828686 L 111 425.9829401767063 L 112 424.71473741047373 L 113 423.43302268030305 L 114 422.138558419979 L 115 420.83211464740174 L 116 419.5144685065384 L 117 418.1864038051352 L 118 416.84871054846644 L 119 415.50218446939544 L 120 414.14762655503006 L 121 412.7858425702515 L 122 411.4176425784014 L 123 410.0438404594124 L 124 408.6652534256676 L 125 407.28270153587795 L 126 405.89700720726734 L 127 404.5089947263532 L 128 403.11948975861645 L 129 401.7293188573506 L 130 400.3393089719826 L 131 398.9502869561583 L 132 397.5630790758852 L 133 396.1785105180237 L 134 394.7974048994217 L 135 393.42058377698186 L 136 392.04886615895504 L 137 390.6830680177495 L 138 389.3240018045462 L 139 387.972475966008 L 140 386.6292944633723 L 141 385.2952562942104 L 142 383.9711550171406 L 143 382.65777827977604 L 144 381.35590735018934 L 145 380.0663166521711 L 146 378.7897733045612 L 147 377.527036664924 L 148 376.27885787784163 L 149 375.04597942809187 L 150 373.8291346989779 L 151 372.62904753607194 L 152 371.44643181663236 L 153 370.2819910249507 L 154 369.13641783388067 L 155 368.01039369279886 L 156 366.90458842224126 L 157 365.8196598154576 L 158 364.7562532471201 L 159 363.71500128941943 L 160 362.6965233357761 L 161 361.7014252323918 L 162 360.7302989178588 L 163 359.78372207104286 L 164 358.8622577674481 L 165 357.9664541442691 L 166 357.09684407432906 L 167 356.25394484909793 L 168 355.4382578709794 L 169 354.65026835504915 L 170 353.89044504042266 L 171 353.15923991142375 L 172 352.45708792871926 L 173 351.78440677058126 L 174 351.1415965844288 L 175 350.52903974879865 L 176 349.94710064588566 L 177 349.3961254447884 L 178 348.87644189558887 L 179 348.38835913438874 L 180 347.93216749941865 L 181 347.50813835832906 L 182 347.1165239467658 L 183 346.75755721832695 L 184 346.43145170598893 L 185 346.13840139508574 L 186 345.8785806079158 L 187 345.65214390004553 L 188 345.45922596837124 L 189 345.2999415709943 L 190 345.17438545895635 L 191 345.0826323198767 L 192 345.0247367335237 L 193 345.0007331393478 L 194 345.0106358159953 L 195 345.0544388728142 L 196 345.1321162533589 L 197 345.24362175088936 L 198 345.3888890358577 L 199 345.56783169536465 L 200 345.78034328456266 L 201 346.02629738997496 L 202 346.30554770469325 L 203 346.6179281154091 L 204 346.963252801227 L 205 347.3413163442011 L 206 347.7518938515287 L 207 348.1947410893288 L 208 348.66959462792573 L 209 349.17617199855175 L 210 349.7141718613744 L 211 350.28327418475016 L 212 350.8831404355967 L 213 351.51341378077075 L 214 352.1737192993318 L 215 352.8636642055659 L 216 353.5828380826354 L 217 354.3308131267178 L 218 355.10714440148666 L 219 355.9113701027836 L 220 356.7430118333251 L 221 357.6015748872791 L 222 358.48654854454287 L 223 359.39740637454713 L 224 360.333606549406 L 225 361.2945921662254 L 226 362.2797915783794 L 227 363.28861873555684 L 228 364.32047353237573 L 229 365.37474216535907 L 230 366.45079749805825 L 231 367.54799943410814 L 232 368.66569529799136 L 233 369.80322022328505 L 234 370.95989754816 L 235 372.13503921789544 L 236 373.3279461941722 L 237 374.5379088708982 L 238 375.7642074963211 L 239 377.00611260117597 L 240 378.262885432613 L 241 379.5337783936485 L 242 380.8180354878758 L 243 382.11489276917354 L 244 383.42357879614207 L 245 384.74331509099926 L 246 386.07331660266124 L 247 387.4127921737336 L 248 388.76094501113505 L 249 390.11697316007337 L 250 391.4800699810916 L 251 392.8494246299015 L 252 394.22422253971763 L 253 395.60364590580633 L 254 396.98687417196027 L 255 398.37308451861037 L 256 399.7614523522833 L 257 401.151151796115 L 258 402.5413561811271 L 259 403.93123853797465 L 260 405.31997208887253 L 261 406.70673073940816 L 262 408.0906895699473 L 263 409.47102532634125 L 264 410.8469169096432 L 265 412.2175458645429 L 266 413.5820968662282 L 267 414.93975820538486 L 268 416.2897222710455 L 269 417.6311860310005 L 270 418.96335150948545 L 271 420.2854262618606 L 272 421.596623846 L 273 422.8961642901104 L 274 424.1832745567008 L 275 425.45718900242724 L 276 426.71714983353945 L 277 427.96240755665747 L 278 429.1922214246117 L 279 430.40585987707914 L 280 431.60260097575576 L 281 432.78173283380454 L 282 433.9425540393247 L 283 435.08437407258947 L 284 436.20651371680526 L 285 437.30830546214645 L 286 438.38909390282697 L 287 439.448236126971 L 288 440.4851020990523 L 289 441.4990750346736 L 290 442.4895517674635 L 291 443.45594310787294 L 292 444.39767419365677 L 293 445.3141848318337 L 294 446.20492983191934 L 295 447.0693793302353 L 296 447.9070191051008 L 297 448.71735088272004 L 298 449.4998926335824 L 299 450.25417885920007 L 300 450.97976086901156 L 301 451.6762070472878 L 302 452.34310310988025 L 303 452.98005235066 L 304 453.58667587750006 L 305 454.16261283766096 L 306 454.707520632446 L 307 455.22107512099706 L 308 455.7029708131118 L 309 456.1529210509656 L 310 456.5706581796311 L 311 456.9559337062945 L 312 457.308518448072 L 313 457.6282026683406 L 314 457.9147962015009 L 315 458.1681285660979 L 316 458.38804906623244 L 317 458.57442688120386 L 318 458.7271511433287 L 319 458.8461310038913 L 320 458.9312956871851 L 321 458.9825945326146 L 322 458.99999702483024 L 323 458.98349281188104 L 324 458.9330917113725 L 325 458.8488237046265 L 326 458.73073891884667 L 327 458.5789075973001 L 328 458.39342005753275 L 329 458.17438663764386 L 330 457.9219376306506 L 331 457.63622320698255 L 332 457.3174133251527 L 333 456.9656976306562 L 334 456.5812853431595 L 335 456.1644051320444 L 336 455.71530498038373 L 337 455.2342520374271 L 338 454.72153245968593 L 339 454.1774512407123 L 340 453.60233202967174 L 341 452.99651693881947 L 342 452.36036633999294 L 343 451.69425865024346 L 344 450.9985901067328 L 345 450.27377453103 L 346 449.52024308294733 L 347 448.73844400406335 L 348 447.9288423510842 L 349 447.0919197192026 L 350 446.2281739556185 L 351 445.338118863393 L 352 444.4222838958096 L 353 443.48121384142706 L 354 442.5154685000092 L 355 441.5256223495257 L 356 440.5122642044208 L 357 439.47599686535517 L 358 438.41743676062634 L 359 437.33721357948446 L 360 436.2359698975579 L 361 435.11436079461487 L 362 433.97305346488605 L 363 432.8127268201812 L 364 431.6340710860351 L 365 430.43778739112423 L 366 429.2245873501968 L 367 427.99519264076605 L 368 426.75033457381625 L 369 425.49075365878014 L 370 424.21719916304255 L 371 422.93042866623597 L 372 421.6312076095909 L 373 420.320308840609 L 374 418.9985121533323 L 375 417.6666038244782 L 376 416.32537614572004 L 377 414.9756269523881 L 378 413.6181591488744 L 379 412.2537802310205 L 380 410.88330180577617 L 381 409.50753910840996 L 382 408.12731051756407 L 383 406.74343706843706 L 384 405.3567419643884 L 385 403.96805008725113 L 386 402.57818750664836 L 387 401.1879809886009 L 388 399.79825750372277 L 389 398.40984373529307 L 390 397.02356558750057 L 391 395.6402476941502 L 392 394.2607129281264 L 393 392.88578191190305 L 394 391.5162725293929 L 395 390.1529994394253 L 396 388.79677359114305 L 397 387.44840174160527 L 398 386.10868597588467 L 399 384.7784232299433 L 400 383.4584048165721 L 401 382.1494159546742 L 402 380.85223530217473 L 403 379.56763449283187 L 404 378.2963776772277 L 405 377.0392210682092 L 406 375.7969124910521 L 407 374.5701909386134 L 408 373.35978613173813 L 409 372.1664180851817 L 410 370.9907966793059 L 411 369.8336212378033 L 412 368.69558011170125 L 413 367.57735026989366 L 414 366.47959689644233 L 415 365.40297299488986 L 416 364.3481189998169 L 417 363.31566239587755 L 418 362.30621734453644 L 419 361.3203843187326 L 420 360.35874974568515 L 421 359.42188565805463 L 422 358.5103493536665 L 423 357.62468306400046 L 424 356.76541363164097 L 425 355.9330521968833 L 426 355.12809389367874 L 427 354.3510175551025 L 428 353.6022854285173 L 429 352.8823429006037 L 430 352.19161823241956 L 431 351.53052230464743 L 432 350.8994483731797 L 433 350.2987718351894 L 434 349.7288500058226 L 435 349.19002190564856 L 436 348.6826080589915 L 437 348.2069103032653 L 438 347.7632116094242 L 439 347.3517759136364 L 440 346.97284796028 L 441 346.62665315635616 L 442 346.3133974374045 L 443 346.03326714500145 L 444 345.78642891591426 L 445 345.57302958297606 L 446 345.393196087742 L 447 345.2470354049774 L 448 345.1346344790232 L 449 345.05606017207685 L 450 345.011359224419 L 451 345.0005582266099 L 452 345.02366360367176 L 453 345.0806616112669 L 454 345.17151834387363 L 455 345.29617975495495 L 456 345.4545716891085 L 457 345.64659992617834 L 458 345.8721502373021 L 459 346.1310884528604 L 460 346.42326054228863 L 461 346.74849270570235 L 462 347.1065914772831 L 463 347.4973438403624 L 464 347.9205173541358 L 465 348.37586029193113 L 466 348.86310179094926 L 467 349.38195201338823 L 468 349.9321023188544 L 469 350.51322544795875 L 470 351.1249757169884 L 471 351.7669892235383 L 472 352.4388840629801 L 473 353.14026055564 L 474 353.87070148454967 L 475 354.62977234363007 L 476 355.41702159615903 L 477 356.23198094337016 L 478 357.07416560302204 L 479 357.9430745977739 L 480 358.8381910531932 L 481 359.75898250522187 L 482 360.7049012169138 L 483 361.67538450425974 L 484 362.66985507090146 L 485 363.6877213515399 L 486 364.7283778638296 L 487 365.79120556855355 L 488 366.87557223786064 L 489 367.98083283134986 L 490 369.1063298797749 L 491 370.2513938761433 L 492 371.4153436739752 L 493 372.5974868924868 L 494 373.79712032845595 L 495 375.0135303745256 L 496 376.245993443697 L 497 377.4937763997576 L 498 378.7561369933918 L 499 380.03232430371 L 500 381.3215791849383 L 501 382.6231347179988 L 502 383.9362166667161 L 503 385.2600439383738 L 504 386.59382904835235 L 505 387.9367785885666 L 506 389.2880936994293 L 507 390.64697054505524 L 508 392.01260079142776 L 509 393.3841720872388 L 510 394.7608685471208 L 511 396.1418712369788 L 512 397.5263586611377 L 513 398.9135072510125 L 514 400.30249185501185 L 515 401.6924862293829 L 516 403.0826635297066 L 517 404.47219680274935 L 518 405.8602594783804 L 519 407.24602586125997 L 520 408.628671622009 L 521 410.00737428756395 L 522 411.3813137304299 L 523 412.74967265653567 L 524 414.1116370914064 L 525 415.46639686435844 L 526 416.8131460904344 L 527 418.1510836497862 L 528 419.47941366422606 L 529 420.79734597065703 L 530 422.10409659110604 L 531 423.39888819907605 L 532 424.6809505819428 L 533 425.94952109911856 L 534 427.20384513571304 L 535 428.4431765514192 L 536 429.66677812435773 L 537 430.87392198961766 L 538 432.0638900722291 L 539 433.23597451431453 L 540 434.38947809616 L 541 435.5237146509604 L 542 436.6380094729883 L 543 437.7316997189462 L 544 438.80413480226105 L 545 439.8546767800896 L 546 440.88270073280086 L 547 441.8875951357127 L 548 442.8687622228596 L 549 443.8256183425773 L 550 444.7575943046897 L 551 445.6641357190949 L 552 446.5447033255459 L 553 447.398773314433 L 554 448.2258376383734 L 555 449.0254043144259 L 556 449.79699771674905 L 557 450.5401588595296 L 558 451.2544456700116 L 559 451.93943325146637 L 560 452.59471413594326 L 561 453.21989852665445 L 562 453.81461452984695 L 563 454.3785083760256 L 564 454.91124463039404 L 565 455.4125063923902 L 566 455.8819954841952 L 567 456.3194326281067 L 568 456.7245576126678 L 569 457.09712944745525 L 570 457.4369265064337 L 571 457.74374665979093 L 572 458.01740739417573 L 573 458.2577459212667 L 574 458.4646192746076 L 575 458.63790439465174 L 576 458.77749820196425 L 577 458.88331765853974 L 578 458.95529981719744 L 579 458.99340185902577 L 580 458.99760111885337 L 581 458.9678950987317 L 582 458.9043014694206 L 583 458.8068580598773 L 584 458.675622834753 L 585 458.51067385991314 L 586 458.31210925599873 L 587 458.0800471400596 L 588 457.8146255552914 L 589 457.5160023889203 L 590 457.18435527828285 L 591 456.81988150515775 L 592 456.42279787841187 L 593 455.99334060503054 L 594 455.53176514960853 L 595 455.0383460823863 L 596 454.51337691591993 L 597 453.95716993048455 L 598 453.37005598831263 L 599 452.7523843367792 L 600 452.1045224006503 L 601 451.42685556351904 L 602 450.71978693855806 L 603 449.98373712872626 L 604 449.2191439765707 L 605 448.42646230377454 L 606 447.60616364060394 L 607 446.75873594541633 L 608 445.8846833143959 L 609 444.98452568169034 L 610 444.05879851012486 L 611 443.1080524726804 L 612 442.13285312492286 L 613 441.1337805685802 L 614 440.1114291064659 L 615 439.06640688895567 L 616 437.9993355522261 L 617 436.91084984847174 L 618 435.80159726832005 L 619 434.67223765566837 L 620 433.5234428151731 L 621 432.3558961126233 L 622 431.1702920684381 L 623 429.96733594452706 L 624 428.7477433247633 L 625 427.51223968931396 L 626 426.26155998308593 L 627 424.9964481785398 L 628 423.7176568331355 L 629 422.4259466416688 L 630 421.12208598377 L 631 419.8068504668284 L 632 418.48102246462014 L 633 417.14539065190843 L 634 415.8007495352978 L 635 414.4478989806174 L 636 413.08764373711807 L 637 411.7207929587627 L 638 410.3481597228981 L 639 408.97056054659197 L 640 407.5888149009241 L 641 406.20374472352006 L 642 404.8161739296184 L 643 403.4269279219604 L 644 402.036833099796 L 645 400.6467163672961 L 646 399.2574046416653 L 647 397.86972436124586 L 648 396.484500993908 L 649 395.10255854601564 L 650 393.7247190722633 L 651 392.3518021866726 L 652 390.9846245750417 L 653 389.62399950913544 L 654 388.27073636290766 L 655 386.9256401310406 L 656 385.58951095009127 L 657 384.2631436225256 L 658 382.94732714392717 L 659 381.6428442336593 L 660 380.3504708692615 L 661 379.0709758248552 L 662 377.80512021383487 L 663 376.5536570361166 L 664 375.31733073021314 L 665 374.09687673040025 L 666 372.893021029241 L 667 371.7064797457258 L 668 370.53795869928575 L 669 369.3881529899325 L 670 368.2577465847752 L 671 367.1474119111591 L 672 366.05780945667027 L 673 364.98958737623997 L 674 363.943381106588 L 675 362.9198129882295 L 676 361.91949189527395 L 677 360.94301287323236 L 678 359.9909567850526 L 679 359.06388996559014 L 680 358.1623638847216 L 681 357.2869148192998 L 682 356.4380635341476 L 683 355.616314972278 L 684 354.8221579545276 L 685 354.0560648887778 L 686 353.3184914889423 L 687 352.6098765038824 L 688 351.93064145641637 L 689 351.2811903925738 L 690 350.66190964124763 L 691 350.07316758438407 L 692 349.5153144378497 L 693 348.9886820431032 L 694 348.4935836697985 L 695 348.03031382943453 L 696 347.59914810016426 L 697 347.20034296286525 L 698 346.834135648571 L 699 346.50074399735325 L 700 346.20036632873837 L 701 345.93318132373673 L 702 345.6993479185528 L 703 345.4990052100417 L 704 345.3322723729666 L 705 345.19924858910736 L 706 345.1000129882613 L 707 345.03462460117294 L 708 345.0031223244191 L 709 345.0055248972711 L 710 345.0418308905476 L 711 345.1120187074649 L 712 345.21604659648375 L 713 345.3538526761454 L 714 345.52535497188217 L 715 345.7304514647804 L 716 345.96902015226686 L 717 346.2409191206823 L 718 346.54598662969977 L 719 346.8840412085365 L 720 347.25488176390235 L 721 347.6582876996213 L 722 348.0940190478542 L 723 348.5618166118444 L 724 349.06140212010234 L 725 349.59247839193637 L 726 350.15472951423243 L 727 350.7478210293759 L 728 351.3714001342057 L 729 352.02509588988033 L 730 352.708519442533 L 731 353.42126425458264 L 732 354.1629063465653 L 733 354.9330045493393 L 734 355.73110076651733 L 735 356.5567202469673 L 736 357.4093718672197 L 737 358.2885484236146 L 738 359.1937269340145 L 739 360.12436894890226 L 740 361.0799208716804 L 741 362.0598142879805 L 742 363.0634663037866 L 743 364.09027989217316 L 744 365.1396442484487 L 745 366.21093515349577 L 746 367.3035153450903 L 747 368.41673489698053 L 748 369.54993160549805 L 749 370.7024313834729 L 750 371.8735486612168 L 751 373.0625867943383 L 752 374.2688384781442 L 753 375.4915861683832 L 754 376.73010250807977 L 755 377.98365076020656 L 756 379.2514852459353 L 757 380.5328517882075 L 758 381.8269881603591 L 759 383.1331245395359 L 760 384.45048396462516 L 761 385.7782827984348 L 762 387.1157311938431 L 763 388.4620335636434 L 764 389.8163890538024 L 765 391.1779920198521 L 766 392.5460325061302 L 767 393.9196967275869 L 768 395.29816755386815 L 769 396.68062499538956 L 770 398.06624669111 L 771 399.4542083977181 L 772 400.8436844799363 L 773 402.2338484016541 L 774 403.6238732175958 L 775 405.0129320652342 L 776 406.4001986566525 L 777 407.7848477700656 L 778 409.16605574070655 L 779 410.54300095078827 L 780 411.9148643182458 L 781 413.2808297839711 L 782 414.64008479724987 L 783 415.99182079911003 L 784 417.335233703298 L 785 418.6695243745921 L 786 419.99389910417216 L 787 421.30757008176016 L 788 422.60975586425377 L 789 423.89968184057057 L 790 425.17658069242907 L 791 426.4396928507912 L 792 427.6882669476961 L 793 428.9215602632141 L 794 430.13883916725734 L 795 431.33937955598253 L 796 432.52246728252794 L 797 433.6873985818265 L 798 434.8334804892439 L 799 435.9600312527912 L 800 437.06638073866867 L 801 438.1518708298977 L 802 439.2158558178046 L 803 440.2577027861231 L 804 441.27679198748785 L 805 442.2725172120939 L 806 443.24428614830305 L 807 444.191520734983 L 808 445.1136575053702 L 809 446.0101479222502 L 810 446.88045870425753 L 811 447.7240721431003 L 812 448.5404864115218 L 813 449.3292158618143 L 814 450.08979131470926 L 815 450.8217603384698 L 816 451.52468751802286 L 817 452.19815471396714 L 818 452.8417613113055 L 819 453.45512445775216 L 820 454.0378792914748 L 821 454.58967915813366 L 822 455.11019581709076 L 823 455.59911963666536 L 824 456.0561597783193 L 825 456.48104436966423 L 826 456.8735206661858 L 827 457.23335520159 L 828 457.56033392668115 L 829 457.85426233669097 L 830 458.11496558697974 L 831 458.342288597044 L 832 458.5360961427663 L 833 458.6962729368547 L 834 458.82272369742105 L 835 458.91537320466057 L 836 458.97416634559613 L 837 458.99906814686284 L 838 458.990063795512 L 839 458.9471586478227 L 840 458.87037822611524 L 841 458.7597682035697 L 842 458.6153943770566 L 843 458.4373426279973 L 844 458.2257188712774 L 845 457.98064899224255 L 846 457.7022787718149 L 847 457.3907737997749 L 848 457.0463193762593 L 849 456.66912040153466 L 850 456.25940125411125 L 851 455.8174056572708 L 852 455.3433965340865 L 853 454.83765585102196 L 854 454.3004844502021 L 855 453.73220187045604 L 856 453.13314615723806 L 857 452.50367366153944 L 858 451.84415882791166 L 859 451.1549939717263 L 860 450.4365890458047 L 861 449.6893713965552 L 862 448.9137855097647 L 863 448.11029274619403 L 864 447.2793710671353 L 865 446.42151475009496 L 866 445.53723409477004 L 867 444.6270551194944 L 868 443.691519248334 L 869 442.73118298901915 L 870 441.7466176019024 L 871 440.7384087601424 L 872 439.70715620131307 L 873 438.6534733706478 L 874 437.57798705612794 L 875 436.4813370156355 L 876 435.3641755963903 L 877 434.22716734689857 L 878 433.0709886216425 L 879 431.89632717874855 L 880 430.70388177087074 L 881 429.4943617295354 L 882 428.268486543191 L 883 427.02698542921786 L 884 425.77059690014977 L 885 424.50006832436685 L 886 423.21615548151937 L 887 421.9196221129492 L 888 420.6112394673748 L 889 419.2917858421109 L 890 417.96204612009404 L 891 416.6228113029917 L 892 415.2748780406714 L 893 413.91904815731067 L 894 412.55612817442693 L 895 411.1869288311156 L 896 409.8122646017777 L 897 408.43295321162685 L 898 407.0498151502607 L 899 405.66367318358976 L 900 404.27535186441094 L 901 402.8856770419193 L 902 401.49547537044697 L 903 400.10557381772475 L 904 398.7167991729564 L 905 397.3299775549993 L 906 395.94593392094447 L 907 394.56549157538626 L 908 393.1894716806764 L 909 391.8186927684516 L 910 390.45397025272723 L 911 389.0961159448432 L 912 387.7459375705552 L 913 386.40423828955517 L 914 385.0718162177086 L 915 383.7494639522908 L 916 382.43796810050753 L 917 381.1381088115778 L 918 379.8506593126593 L 919 378.57638544888954 L 920 377.3160452278203 L 921 376.0703883685132 L 922 374.8401558555662 L 923 373.6260794983349 L 924 372.4288814956129 L 925 371.24927400602866 L 926 370.08795872441476 L 927 368.9456264644012 L 928 367.82295674748195 L 929 366.72061739879854 L 930 365.63926414988185 L 931 364.57954024858617 L 932 363.54207607645094 L 933 362.5274887737154 L 934 361.5363818722102 L 935 360.5693449363431 L 936 359.6269532123945 L 937 358.70976728632905 L 938 357.8183327503296 L 939 356.953179878248 L 940 356.11482331017 L 941 355.3037617462789 L 942 354.5204776502023 L 943 353.76543696201526 L 944 353.0390888210747 L 945 352.3418652988463 L 946 351.674181141885 L 947 351.0364335251215 L 948 350.4290018156001 L 949 349.8522473468114 L 950 349.3065132037509 L 951 348.79212401883365 L 952 348.3093857787849 L 953 347.8585856426227 L 954 347.43999177084015 L 955 347.05385316588877 L 956 346.7003995240583 L 957 346.37984109884076 L 958 346.09236857586023 L 959 345.83815295944305 L 960 345.61734547089446 L 961 345.43007745854436 L 962 345.27646031961393 L 963 345.15658543395085 L 964 345.0705241096711 L 965 345.01832754074144 L 966 345.0000267765261 L 967 345.01563270331724 L 968 345.06513603785896 L 969 345.1485073328695 L 970 345.26569699455825 L 971 345.41663531212674 L 972 345.60123249923635 L 973 345.8193787474182 L 974 346.0709442913934 L 975 346.35577948626394 L 976 346.6737148965304 L 977 347.0245613968807 L 978 347.4081102846927 L 979 347.8241334041816 L 980 348.27238328211945 L 981 348.75259327504585 L 982 349.26447772788197 L 983 349.8077321438535 L 984 350.3820333656224 L 985 350.98703976751824 L 986 351.62239145875554 L 987 352.287710497517 L 988 352.9826011157733 L 989 353.7066499547079 L 990 354.45942631060524 L 991 355.24048239105684 L 992 356.04935358133235 L 993 356.8855587207583 L 994 357.7486003889381 L 995 358.6379652016454 L 996 359.5531241162121 L 997 360.49353274623286 L 998 361.45863168539506 L 999 362.4478468402446 L 1000 363.4605897716874 L 1001 364.4962580450256 L 1002 365.5542355883186 L 1003 366.6338930588558 L 1004 367.7345882175239 L 1005 368.8556663108464 L 1006 369.9964604604661 L 1007 371.156292059841 L 1008 372.3344711779158 L 1009 373.5302969695315 L 1010 374.74305809232555 L 1011 375.9720331298777 L 1012 377.21649102084655 L 1013 378.47569149384645 L 1014 379.74888550779997 L 1015 381.035315697509 L 1016 382.33421682417617 L 1017 383.6448162306114 L 1018 384.9663343008501 L 1019 386.29798492391154 L 1020 387.6389759614196 L 1021 388.98850971881103 L 1022 390.34578341984724 L 1023 391.7099896841491 L 1024 393.0803170074707 L 1025 394.45595024442696 L 1026 395.83607109338607 L 1027 397.2198585832399 L 1028 398.6064895617628 L 1029 399.99513918526645 L 1030 401.3849814092628 L 1031 402.77518947984015 L 1032 404.16493642546135 L 1033 405.553395548891 L 1034 406.9397409189609 L 1035 408.3231478618788 L 1036 409.7027934517888 L 1037 411.0778570002925 L 1038 412.44752054464004 L 1039 413.8109693342981 L 1040 415.1673923156084 L 1041 416.51598261424596 L 1042 417.8559380151928 L 1043 419.18646143993874 L 1044 420.5067614206272 L 1045 421.81605257086284 L 1046 423.1135560529034 L 1047 424.3985000409539 L 1048 425.6701201802912 L 1049 426.92766004194306 L 1050 428.17037157265446 L 1051 429.3975155398697 L 1052 430.6083619714684 L 1053 431.80219058999256 L 1054 432.9782912411071 L 1055 434.13596431603844 L 1056 435.27452116773964 L 1057 436.3932845205351 L 1058 437.4915888730014 L 1059 438.5687808938439 L 1060 439.6242198105335 L 1061 440.6572777904728 L 1062 441.66734031446595 L 1063 442.6538065422676 L 1064 443.61608966999563 L 1065 444.55361727919365 L 1066 445.46583167733735 L 1067 446.3521902295802 L 1068 447.21216568154193 L 1069 448.0452464729487 L 1070 448.8509370419362 L 1071 449.6287581198379 L 1072 450.3782470162795 L 1073 451.0989578944126 L 1074 451.7904620361224 L 1075 452.45234809705335 L 1076 453.08422235129854 L 1077 453.6857089256096 L 1078 454.2564500229865 L 1079 454.7961061355147 L 1080 455.3043562463232 L 1081 455.7808980205427 L 1082 456.2254479851505 L 1083 456.6377416975963 L 1084 457.01753390310694 L 1085 457.364598680577 L 1086 457.67872957695903 L 1087 457.9597397300734 L 1088 458.2074619797639 L 1089 458.4217489673336 L 1090 458.602473223202 L 1091 458.74952724273095 L 1092 458.86282355017397 L 1093 458.94229475071194 L 1094 458.98789357054295 L 1095 458.9995928850035 L 1096 458.9773857347037 L 1097 458.9212853296669 L 1098 458.83132504147204 L 1099 458.70755838340193 L 1100 458.5500589786111 L 1101 458.35892051633044 L 1102 458.1342566961358 L 1103 457.8762011603133 L 1104 457.5849074143617 L 1105 457.26054873567875 L 1106 456.9033180704866 L 1107 456.51342791905665 L 1108 456.09111020930305 L 1109 455.63661615881904 L 1110 455.15021612543916 L 1111 454.63219944641594 L 1112 454.0828742663058 L 1113 453.5025673536684 L 1114 452.8916239066863 L 1115 452.25040734782306 L 1116 451.579299107639 L 1117 450.8786983978959 L 1118 450.14902197408395 L 1119 449.39070388751304 L 1120 448.6041952271152 L 1121 447.78996385111236 L 1122 446.94849410870853 L 1123 446.08028655197336 L 1124 445.1858576380854 L 1125 444.26573942211576 L 1126 443.3204792405327 L 1127 442.3506393856163 L 1128 441.35679677097585 L 1129 440.3395425883706 L 1130 439.2994819560362 L 1131 438.2372335587283 L 1132 437.15342927969425 L 1133 436.0487138247946 L 1134 434.92374433899744 L 1135 433.7791900154724 L 1136 432.6157316975181 L 1137 431.43406147355927 L 1138 430.23488226545504 L 1139 429.0189074103631 L 1140 427.78686023640705 L 1141 426.5394736324019 L 1142 425.2774896118916 L 1143 424.0016588717597 L 1144 422.7127403456726 L 1145 421.4115007526257 L 1146 420.0987141408562 L 1147 418.77516142739796 L 1148 417.44162993354854 L 1149 416.09891291652804 L 1150 414.7478090976066 L 1151 413.38912218698084 L 1152 412.0236604056845 L 1153 410.65223600481295 L 1154 409.27566478235286 L 1155 407.8947655979009 L 1156 406.5103598855618 L 1157 405.1232711653138 L 1158 403.7343245531345 L 1159 402.3443462701769 L 1160 400.9541631512886 L 1161 399.5646021531639 L 1162 398.1764898624263 L 1163 396.79065200392876 L 1164 395.40791294956864 L 1165 394.02909522790515 L 1166 392.6550190348752 L 1167 391.2865017458958 L 1168 389.9243574296455 L 1169 388.5693963638106 L 1170 387.22242455308884 L 1171 385.88424324973323 L 1172 384.55564847692443 L 1173 383.23743055525176 L 1174 381.93037363258793 L 1175 380.6352552176349 L 1176 379.3528457174201 L 1177 378.0839079790151 L 1178 376.8291968357536 L 1179 375.58945865821465 L 1180 374.3654309102419 L 1181 373.1578417102584 L 1182 371.96740939814316 L 1183 370.79484210792293 L 1184 369.6408373465361 L 1185 368.5060815789166 L 1186 367.39124981964795 L 1187 366.29700523142714 L 1188 365.2239987305802 L 1189 364.17286859986086 L 1190 363.14424010876536 L 1191 362.1387251415883 L 1192 361.1569218334403 L 1193 360.1994142144451 L 1194 359.2667718623257 L 1195 358.3595495635894 L 1196 357.4782869835098 L 1197 356.6235083451054 L 1198 355.79572211730203 L 1199 354.9954207124687 L 1200 354.22308019350345 L 1201 353.4791599906456 L 1202 352.7641026281811 L 1203 352.0783334612051 L 1204 351.42226042259773 L 1205 350.7962737803635 L 1206 350.20074590547824 L 1207 349.63603105038266 L 1208 349.10246513825376 L 1209 348.60036556317965 L 1210 348.13003100135586 L 1211 347.6917412334164 L 1212 347.28575697800545 L 1213 346.91231973668744 L 1214 346.5716516502887 L 1215 346.26395536675585 L 1216 345.9894139206102 L 1217 345.7481906240687 L 1218 345.5404289698964 L 1219 345.36625254604996 L 1220 345.2257649621601 L 1221 345.1190497878994 L 1222 345.04617050327045 L 1223 345.007170460844 L 1224 345.0020728599712 L 1225 345.0308807329829 L 1226 345.093576943386 L 1227 345.190124196057 L 1228 345.32046505942765 L 1229 345.48452199964777 L 1230 345.68219742670686 L 1231 345.9133737524862 L 1232 346.17791346070635 L 1233 346.4756591887294 L 1234 346.8064338211669 L 1235 347.1700405952377 L 1236 347.5662632178133 L 1237 347.99486599408067 L 1238 348.45559396774627 L 1239 348.9481730726982 L 1240 349.4723102960356 L 1241 350.0276938523685 L 1242 350.6139933692849 L 1243 351.2308600838744 L 1244 351.8779270501912 L 1245 352.5548093575338 L 1246 353.2611043594103 L 1247 353.9963919130553 L 1248 354.76023462935296 L 1249 355.55217813302056 L 1250 356.37175133289503 L 1251 357.2184667021641 L 1252 358.0918205683737 L 1253 358.99129341303995 L 1254 359.9163501806864 L 1255 360.8664405971251 L 1256 361.8409994967893 L 1257 362.83944715892466 L 1258 363.86118965243844 L 1259 364.9056191892029 L 1260 365.9721144856002 L 1261 367.06004113209605 L 1262 368.1687519706205 L 1263 369.2975874795339 L 1264 370.44587616594515 L 1265 371.6129349651535 L 1266 372.79806964697104 L 1267 374.0005752286905 L 1268 375.219736394446 L 1269 376.45482792072283 L 1270 377.7051151077589 L 1271 378.9698542165853 L 1272 380.2482929114422 L 1273 381.5396707073093 L 1274 382.84321942228377 L 1275 384.1581636345363 L 1276 385.48372114357517 L 1277 386.8191034355409 L 1278 388.163516152258 L 1279 389.5161595637614 L 1280 390.87622904402076 L 1281 392.24291554957506 L 1282 393.6154061007962 L 1283 394.9928842654926 L 1284 396.3745306445692 L 1285 397.7595233594493 L 1286 399.14703854097377 L 1287 400.536250819482 L 1288 401.9263338157883 L 1289 403.31646063275633 L 1290 404.7058043471831 L 1291 406.09353850169697 L 1292 407.47883759638097 L 1293 408.8608775798242 L 1294 410.238836339313 L 1295 411.6118941898676 L 1296 412.9792343618366 L 1297 414.3400434867551 L 1298 415.6935120811815 L 1299 417.038835028221 L 1300 418.3752120564545 L 1301 419.7018482159829 L 1302 421.017954351307 L 1303 422.3227475707592 L 1304 423.6154517122116 L 1305 424.8952978047787 L 1306 426.1615245262434 L 1307 427.41337865593243 L 1308 428.65011552277394 L 1309 429.8709994482681 L 1310 431.0753041841086 L 1311 432.26231334419447 L 1312 433.4313208307764 L 1313 434.5816312544815 L 1314 435.7125603479692 L 1315 436.8234353729703 L 1316 437.91359552046885 L 1317 438.9823923037874 L 1318 440.02918994434094 L 1319 441.05336574983477 L 1320 442.05431048467443 L 1321 443.03142873237255 L 1322 443.9841392497349 L 1323 444.91187531261585 L 1324 445.8140850530364 L 1325 446.6902317874661 L 1326 447.53979433606986 L 1327 448.3622673327366 L 1328 449.1571615256968 L 1329 449.9240040685566 L 1330 450.66233880157284 L 1331 451.3717265230014 L 1332 452.05174525035864 L 1333 452.70199047143933 L 1334 453.3220753849424 L 1335 453.9116311305621 L 1336 454.4703070084057 L 1337 454.99777068760886 L 1338 455.4937084040245 L 1339 455.95782514686647 L 1340 456.3898448341982 L 1341 456.7895104771614 L 1342 457.15658433284665 L 1343 457.49084804571635 L 1344 457.7921027774941 L 1345 458.06016932544486 L 1346 458.29488822897423 L 1347 458.49611986448434 L 1348 458.6637445284298 L 1349 458.7976625085237 L 1350 458.8977941430518 L 1351 458.96407986826006 L 1352 458.996480253786 L 1353 458.9949760261142 L 1354 458.95956808004144 L 1355 458.89027747814384 L 1356 458.7871454382484 L 1357 458.6502333089139 L 1358 458.4796225329376 L 1359 458.27541459890864 L 1360 458.0377309808371 L 1361 457.76671306589463 L 1362 457.4625220703095 L 1363 457.1253389434666 L 1364 456.7553642602689 L 1365 456.35281810182437 L 1366 455.9179399245297 L 1367 455.4509884176293 L 1368 454.95224134933164 L 1369 454.42199540157856 L 1370 453.86056599356215 L 1371 453.26828709409654 L 1372 452.64551102295485 L 1373 451.9926082412902 L 1374 451.3099671312651 L 1375 450.5979937650214 L 1376 449.85711166312507 L 1377 449.087761542634 L 1378 448.2904010549354 L 1379 447.46550451350953 L 1380 446.61356261178236 L 1381 445.73508213123444 L 1382 444.8305856399391 L 1383 443.90061118171195 L 1384 442.9457119560512 L 1385 441.9664559890654 L 1386 440.9634257955808 L 1387 439.93721803262923 L 1388 438.88844314452416 L 1389 437.8177249997354 L 1390 436.7257005197773 L 1391 435.613019300335 L 1392 434.480343224847 L 1393 433.32834607078246 L 1394 432.15771310884134 L 1395 430.96914069531783 L 1396 429.76333585786966 L 1397 428.5410158749397 L 1398 427.3029078490797 L 1399 426.04974827442925 L 1400 424.7822825986109 L 1401 423.5012647792948 L 1402 422.2074568357051 L 1403 420.9016283953291 L 1404 419.58455623610064 L 1405 418.2570238243306 L 1406 416.9198208486581 L 1407 415.5737427503004 L 1408 414.2195902498828 L 1409 412.85816887112367 L 1410 411.49028846166703 L 1411 410.11676271134036 L 1412 408.7384086681275 L 1413 407.35604625214415 L 1414 405.9704977679047 L 1415 404.5825874151701 L 1416 403.19314079867064 L 1417 401.8029844369889 L 1418 400.4129452709028 L 1419 399.0238501714762 L 1420 397.6365254481905 L 1421 396.25179635741085 L 1422 394.87048661147867 L 1423 393.4934178887225 L 1424 392.12140934468005 L 1425 390.7552771248179 L 1426 389.39583387904503 L 1427 388.04388827830405 L 1428 386.70024453352966 L 1429 385.36570191726 L 1430 384.0410542881861 L 1431 382.7270896189206 L 1432 381.42458952727077 L 1433 380.1343288112868 L 1434 378.8570749883717 L 1435 377.5935878387194 L 1436 376.34461895335613 L 1437 375.11091128705334 L 1438 373.8931987163773 L 1439 372.6922056031397 L 1440 371.5086463635073 L 1441 370.3432250430295 L 1442 369.1966348978317 L 1443 368.0695579822301 L 1444 366.96266474300853 L 1445 365.8766136205997 L 1446 364.8120506574093 L 1447 363.76960911351466 L 1448 362.7499090899668 L 1449 361.75355715992174 L 1450 360.7811460078159 L 1451 359.83325407680644 L 1452 358.91044522468127 L 1453 358.0132683884457 L 1454 357.14225725778493 L 1455 356.29792995759624 L 1456 355.48078873977977 L 1457 354.69131968447283 L 1458 353.9299924109013 L 1459 353.1972597980257 L 1460 352.4935577151437 L 1461 351.81930476261124 L 1462 351.1749020228365 L 1463 350.56073282169393 L 1464 349.97716250050104 L 1465 349.42453819869434 L 1466 348.9031886473306 L 1467 348.41342397354043 L 1468 347.9555355160478 L 1469 347.5297956518656 L 1470 347.13645763427104 L 1471 346.775755442157 L 1472 346.44790364084827 L 1473 346.15309725446684 L 1474 345.89151164992046 L 1475 345.6633024325851 L 1476 345.4686053537424 L 1477 345.3075362298273 L 1478 345.18019087353423 L 1479 345.0866450368224 L 1480 345.0269543658544 L 1481 345.00115436789497 L 1482 345.0092603901892 L 1483 345.0512676108332 L 1484 345.1271510416423 L 1485 345.2368655430158 L 1486 345.3803458507879 L 1487 345.5575066150508 L 1488 345.76824245092524 L 1489 346.0124280012495 L 1490 346.2899180111481 L 1491 346.60054741443787 L 1492 346.94413143181805 L 1493 347.3204656807872 L 1494 347.729326297221 L 1495 348.17047006853863 L 1496 348.6436345783793 L 1497 349.1485383627017 L 1498 349.68488107721333 L 1499 350.25234367603315 L 1500 350.85058860147626 L 1501 351.4792599848521 L 1502 352.1379838581544 L 1503 352.826368376518 L 1504 353.5440040513091 L 1505 354.2904639937119 L 1506 355.0653041686645 L 1507 355.86806365899633 L 1508 356.698264939606 L 1509 357.55541416151965 L 1510 358.43900144565873 L 1511 359.3485011861445 L 1512 360.28337236295664 L 1513 361.24305886376186 L 1514 362.22698981471865 L 1515 363.2345799200659 L 1516 364.26522981028774 L 1517 365.31832639865104 L 1518 366.3932432459033 L 1519 367.4893409329126 L 1520 368.6059674410291 L 1521 369.742458539941 L 1522 370.8981381827957 L 1523 372.0723189083475 L 1524 373.2643022498994 L 1525 374.4733791507877 L 1526 375.69883038616786 L 1527 376.9399269908485 L 1528 378.1959306929201 L 1529 379.4660943529188 L 1530 380.74966240826643 L 1531 382.04587132271865 L 1532 383.3539500405603 L 1533 384.67312044526966 L 1534 386.00259782238527 L 1535 387.34159132629645 L 1536 388.68930445068185 L 1537 390.04493550231433 L 1538 391.4076780779526 L 1539 392.776721544032" stroke-linecap="round" stroke-linejoin="round" stroke-miterlimit="10" stroke-width="20"/></g></svg>